<?xml version="1.0" encoding="UTF-8"?>
<svg width="49px" height="35px" viewBox="0 0 49 35" version="1.1" xmlns="http://www.w3.org/2000/svg" xmlns:xlink="http://www.w3.org/1999/xlink">
    <!-- Generator: Sketch 63.1 (92452) - https://sketch.com -->
    <title>pc</title>
    <desc>Created with Sketch.</desc>
    <g id="Web-Style" stroke="none" stroke-width="1" fill="none" fill-rule="evenodd">
        <g id="Desktop-HD" transform="translate(-1323.000000, -974.000000)">
            <g id="pc" transform="translate(1323.000000, 974.000000)">
                <path d="M27.5663297,3.0136289 L33.1844827,3.00237317 C33.1861057,3.00236992 33.1874241,3.00368301 33.1874274,3.00530605 C33.1874306,3.0069234 33.1861264,3.00823938 33.1845091,3.00825064 C32.5289924,3.01281661 32,3.54550652 32,4.20103908 L32,15.4687051 C32,16.2971322 31.3284271,16.9687051 30.5,16.9687051 C29.6715729,16.9687051 29,16.2971322 29,15.4687051 L29,4.43371489 C29,3.64643969 28.3617873,3.00822704 27.5745121,3.00822704 C27.5717777,3.00822704 27.5690433,3.00823491 27.5663089,3.00825064 C27.5648237,3.00825919 27.5636267,3.00947007 27.5636352,3.01095523 C27.5636437,3.01243644 27.5648485,3.01363187 27.5663297,3.0136289 Z" id="Rectangle" fill="#F0F4FF"></path>
                <path d="M33.4336998,3.00878108 L39.0518804,3.00152901 C39.0529261,3.00152766 39.053775,3.00237428 39.0537763,3.00342 C39.0537777,3.00446336 39.0529347,3.00531118 39.0518914,3.00531587 C38.3968469,3.00825559 37.8673823,3.54010171 37.8673823,4.19515273 L37.8673823,10.5 C37.8673823,11.3284271 37.1958094,12 36.3673823,12 C35.5389552,12 34.8673823,11.3284271 34.8673823,10.5 L34.8673823,4.433701 C34.8673823,3.64482025 34.2278681,3.00530605 33.4389873,3.00530605 C33.4372219,3.00530605 33.4354565,3.00530932 33.4336911,3.00531587 C33.4327343,3.00531941 33.4319614,3.006098 33.431965,3.00705489 C33.4319685,3.00801015 33.4327445,3.00878231 33.4336998,3.00878108 Z" id="Rectangle-Copy" fill="#F0F4FF"></path>
                <rect id="Rectangle" fill="#F0F4FF" x="18" y="27" width="13" height="3" rx="1.5"></rect>
                <path d="M40,1.5 L10,1.5 C9.03350169,1.5 8.15850169,1.89175084 7.52512627,2.52512627 C6.89175084,3.15850169 6.5,4.03350169 6.5,5 L6.5,27.5 L42.5,27.5 L42.5,4 C42.5,3.30964406 42.220178,2.68464406 41.767767,2.23223305 C41.3153559,1.77982203 40.6903559,1.5 40,1.5 Z" id="Rectangle" stroke="#F0F4FF" stroke-width="3"></path>
                <path d="M47,27.5 L1.5,28 L1.5,30.5 C1.5,31.3284271 1.83578644,32.0784271 2.37867966,32.6213203 C2.92157288,33.1642136 3.67157288,33.5 4.5,33.5 L44.5,33.5 C45.3284271,33.5 46.0784271,33.1642136 46.6213203,32.6213203 C47.1642136,32.0784271 47.5,31.3284271 47.5,30.5 L47,27.5 Z" id="Rectangle" stroke="#F0F4FF" stroke-width="3"></path>
            </g>
        </g>
    </g>
</svg>