<?xml version="1.0" encoding="UTF-8"?>
<svg width="500px" height="500px" viewBox="0 0 500 500" version="1.1" xmlns="http://www.w3.org/2000/svg" xmlns:xlink="http://www.w3.org/1999/xlink" style="background: #EBECF0;">
    <!-- Generator: Sketch 63.1 (92452) - https://sketch.com -->
    <title>test copy 7</title>
    <desc>Created with Sketch.</desc>
    <defs>
        <linearGradient x1="100%" y1="73.4072022%" x2="0%" y2="21.9577082%" id="linearGradient-1">
            <stop stop-color="#000000" offset="0%"></stop>
            <stop stop-color="#FFFFFF" offset="100%"></stop>
        </linearGradient>
        <path d="M330,140 C335.522847,140 340,144.477153 340,150 C340,155.522847 335.522847,160 330,160 L312,160 C306.477153,160 302,164.477153 302,170 C302,175.522847 306.477153,180 312,180 L370,180 C375.522847,179.999833 380,184.476986 380,189.999833 L379.999833,190 L379.998167,290 C379.998075,295.522874 375.520874,300 369.998,300 C364.475153,300 359.998,295.522847 359.998,290 L359.998,210 C359.998,204.477153 355.520847,200 349.998,200 C344.475153,200 339.998,204.477153 339.998,210 C339.998,215.522847 335.520847,220 329.998,220 C324.475153,220 319.998,215.522847 319.998,210 C319.998,204.477153 315.520847,200 309.998,200 C304.475153,200 299.998,204.477153 299.998,210 L299.998,270 C299.998,275.522847 295.520847,280 289.998,280 C284.475153,280 279.998,275.522847 279.998,270 L279.998,230 C279.998,224.477153 275.520847,220 269.998,220 C264.475153,220 259.998,224.477153 259.998,230 L259.998,250 C259.998,255.522847 255.520847,260 249.998,260 C244.475153,260 239.998,255.522847 239.998,250 L239.998,210 C239.998,204.477153 235.520847,200 229.998,200 C224.475153,200 219.998,204.477153 219.998,210 L219.998,270.502 C219.998,276.024295 215.521295,280.501 209.999,280.501 C204.476705,280.501 200,276.024295 200,270.502 L200,190 C200,184.477153 204.477153,180 210,180 L268,180 C273.522847,180 278,175.522847 278,170 C278,164.477153 273.522847,160 268,160 L250,160 C244.477153,160 240,155.522847 240,150 C240,144.477153 244.477153,140 250,140 L330,140 Z M250,280 C255.523,280 260,284.478 260,290 C260,295.523 255.523,300 250,300 C244.478,300 240,295.523 240,290 C240,284.478 244.478,280 250,280 Z M330,240 C335.522847,240 340,244.477153 340,250 L340,270 C340,275.522847 335.522847,280 330,280 C324.477153,280 320,275.522847 320,270 L320,250 C320,244.477153 324.477153,240 330,240 Z M54.507,41.0638692 C59.418,43.5318692 61.403,49.5108692 58.944,54.4268692 L48.32,75.6508692 C47.32,77.6478692 48.773,79.9998692 51.007,79.9998692 L110,79.9998692 C115.522847,79.9998692 120,84.4770217 120,89.9998692 C120,95.5227167 115.522847,99.9998692 110,99.9998692 L92,99.9998692 C86.4771525,99.9998692 82,104.477022 82,109.999869 C82,115.522717 86.4771525,119.999869 92,119.999869 L130,119.999869 C135.522847,119.999869 140,124.477022 140,129.999869 C140,135.522719 135.52285,139.999876 130,139.999886 L70.001,139.999984 C64.4781589,140.000009 60.0010164,144.477159 60.001,150 L60.001,209.9995 C60.001,215.522624 55.5236236,220 50.0005,220 C44.4773764,220 40,215.522624 40,209.9995 L40,149.999869 C40,144.477022 35.5228475,139.999869 30,139.999869 L10,139.999869 C4.4771525,139.999869 6.76353751e-16,135.522717 0,129.999869 C-8.0342647e-15,124.477022 4.4771525,119.999869 10,119.999869 L48,119.999869 C53.5228475,119.999869 58,115.522717 58,109.999869 C58,104.477022 53.5228475,99.9998692 48,99.9998692 L30,99.9998692 C30,99.9998692 25.13,100.173869 21.845,95.7878692 C18.56,91.4018692 20.687,86.3558692 20.687,86.3558692 L41.113,45.5218692 C43.575,40.5848692 49.578,38.5858692 54.507,41.0638692 Z M100,160 C105.522847,160 110,164.477153 110,170 L110,190 C110,195.522847 105.522847,200 100,200 C94.4771525,200 90,195.522847 90,190 L90,170 C90,164.477153 94.4771525,160 100,160 Z M230,79.9999692 C235.522847,79.9999692 240,84.4771217 240,89.9999692 C240,95.5228192 235.52285,99.9999761 230,99.9999846 L229.9995,99.9999846 C224.476659,100.000009 219.999515,104.477159 219.9995,110 L219.9995,150 C219.9995,155.522847 215.522347,160 209.9995,160 C204.476653,160 199.9995,155.522847 199.9995,150 L199.9995,110 C199.9995,104.477153 195.522347,100 189.9995,100 C184.476653,100 179.9995,104.477153 179.9995,110 L179.9995,170 C179.9995,175.522847 175.522347,180 169.9995,180 C164.476653,180 159.9995,175.522847 159.9995,170 L159.9995,109.99975 C159.9995,104.477038 155.522462,99.9999931 149.99975,99.9999846 C144.477038,99.9999761 140,95.5229311 140,90.0002192 L140,89.9999692 C140,84.4771217 144.477153,79.9999692 150,79.9999692 L230,79.9999692 Z" id="path-2"></path>
        <filter x="-2.0%" y="-2.9%" width="103.9%" height="105.8%" filterUnits="objectBoundingBox" id="filter-3">
            <feGaussianBlur stdDeviation="5" in="SourceAlpha" result="shadowBlurInner1"></feGaussianBlur>
            <feOffset dx="5" dy="5" in="shadowBlurInner1" result="shadowOffsetInner1"></feOffset>
            <feComposite in="shadowOffsetInner1" in2="SourceAlpha" operator="arithmetic" k2="-1" k3="1" result="shadowInnerInner1"></feComposite>
            <feColorMatrix values="0 0 0 0 0.650980392   0 0 0 0 0.670588235   0 0 0 0 0.741176471  0 0 0 1 0" type="matrix" in="shadowInnerInner1" result="shadowMatrixInner1"></feColorMatrix>
            <feGaussianBlur stdDeviation="5" in="SourceAlpha" result="shadowBlurInner2"></feGaussianBlur>
            <feOffset dx="-5" dy="-5" in="shadowBlurInner2" result="shadowOffsetInner2"></feOffset>
            <feComposite in="shadowOffsetInner2" in2="SourceAlpha" operator="arithmetic" k2="-1" k3="1" result="shadowInnerInner2"></feComposite>
            <feColorMatrix values="0 0 0 0 0.980392157   0 0 0 0 0.984313725   0 0 0 0 1  0 0 0 1 0" type="matrix" in="shadowInnerInner2" result="shadowMatrixInner2"></feColorMatrix>
            <feMerge>
                <feMergeNode in="shadowMatrixInner1"></feMergeNode>
                <feMergeNode in="shadowMatrixInner2"></feMergeNode>
            </feMerge>
        </filter>
    </defs>
    <g id="test-copy-7" stroke="none" stroke-width="1" fill="none" fill-rule="evenodd">
        <rect fill="#EBECF0" x="0" y="0" width="500" height="500"></rect>
        <g id="Group" transform="translate(60.000000, 80.000000)">
            <g id="Combined-Shape-Copy-10">
                <use fill="#EBECF0" fill-rule="evenodd" xlink:href="#path-2"></use>
                <use fill-opacity="0.4" fill="url(#linearGradient-1)" fill-rule="evenodd" style="mix-blend-mode: soft-light;" xlink:href="#path-2"></use>
                <use fill="black" fill-opacity="1" filter="url(#filter-3)" xlink:href="#path-2"></use>
                <path stroke-opacity="0.4" stroke="#FFFFFF" stroke-width="1" d="M330,140.5 L250,140.5 C247.376647,140.5 245.001647,141.563324 243.282486,143.282486 C241.563324,145.001647 240.5,147.376647 240.5,150 C240.5,152.623353 241.563324,154.998353 243.282486,156.717514 C245.001647,158.436676 247.376647,159.5 250,159.5 L268,159.5 C270.899495,159.5 273.524495,160.675253 275.424621,162.575379 C277.324747,164.475505 278.5,167.100505 278.5,170 C278.5,172.899495 277.324747,175.524495 275.424621,177.424621 C273.524495,179.324747 270.899495,180.5 268,180.5 L210,180.5 C207.376647,180.5 205.001647,181.563324 203.282486,183.282486 C201.563324,185.001647 200.5,187.376647 200.5,190 L200.5,270.502 C200.5,273.125076 201.563212,275.499826 203.282193,277.218807 C205.001174,278.937788 207.375924,280.001 209.999,280.001 C212.622076,280.001 214.996826,278.937788 216.715807,277.218807 C218.434788,275.499826 219.498,273.125076 219.498,270.502 L219.498,210 C219.498,207.100505 220.673253,204.475505 222.573379,202.575379 C224.473505,200.675253 227.098505,199.5 229.998,199.5 C232.897495,199.5 235.522495,200.675253 237.422621,202.575379 C239.322747,204.475505 240.498,207.100505 240.498,210 L240.498,250 C240.498,252.623353 241.561324,254.998353 243.280486,256.717514 C244.999647,258.436676 247.374647,259.5 249.998,259.5 C252.621353,259.5 254.996353,258.436676 256.715514,256.717514 C258.434676,254.998353 259.498,252.623353 259.498,250 L259.498,230 C259.498,227.100505 260.673253,224.475505 262.573379,222.575379 C264.473505,220.675253 267.098505,219.5 269.998,219.5 C272.897495,219.5 275.522495,220.675253 277.422621,222.575379 C279.322747,224.475505 280.498,227.100505 280.498,230 L280.498,270 C280.498,272.623353 281.561324,274.998353 283.280486,276.717514 C284.999647,278.436676 287.374647,279.5 289.998,279.5 C292.621353,279.5 294.996353,278.436676 296.715514,276.717514 C298.434676,274.998353 299.498,272.623353 299.498,270 L299.498,210 C299.498,207.100505 300.673253,204.475505 302.573379,202.575379 C304.473505,200.675253 307.098505,199.5 309.998,199.5 C312.897495,199.5 315.522495,200.675253 317.422621,202.575379 C319.322747,204.475505 320.498,207.100505 320.498,210 C320.498,212.623353 321.561324,214.998353 323.280486,216.717514 C324.999647,218.436676 327.374647,219.5 329.998,219.5 C332.621353,219.5 334.996353,218.436676 336.715514,216.717514 C338.434676,214.998353 339.498,212.623353 339.498,210 C339.498,207.100505 340.673253,204.475505 342.573379,202.575379 C344.473505,200.675253 347.098505,199.5 349.998,199.5 C352.897495,199.5 355.522495,200.675253 357.422621,202.575379 C359.322747,204.475505 360.498,207.100505 360.498,210 L360.498,290 C360.498,292.623353 361.561324,294.998353 363.280486,296.717514 C364.999647,298.436676 367.374647,299.5 369.998,299.5 C372.621368,299.5 374.996387,298.436682 376.715576,296.717522 C378.434765,294.998361 379.498123,292.623359 379.498167,289.999992 L379.5,189.999824 C379.5,187.376473 378.43667,185.001467 376.717499,183.282324 C374.998342,181.563196 372.623354,180.499921 370.000015,180.5 L312,180.5 C309.100505,180.5 306.475505,179.324747 304.575379,177.424621 C302.675253,175.524495 301.5,172.899495 301.5,170 C301.5,167.100505 302.675253,164.475505 304.575379,162.575379 C306.475505,160.675253 309.100505,159.5 312,159.5 L330,159.5 C332.623353,159.5 334.998353,158.436676 336.717514,156.717514 C338.436676,154.998353 339.5,152.623353 339.5,150 C339.5,147.376647 338.436676,145.001647 336.717514,143.282486 C334.998353,141.563324 332.623353,140.5 330,140.5 Z M250,280.5 C247.37705,280.5 245.002062,281.563545 243.282803,283.282803 C241.563545,285.002062 240.5,287.37705 240.5,290 C240.5,292.623305 241.563435,294.998203 243.282558,296.717326 C245.001838,298.436606 247.37693,299.5 250,299.5 C252.623425,299.5 254.998427,298.436716 256.717572,296.717572 C258.436716,294.998427 259.5,292.623425 259.5,290 C259.5,287.37693 258.436606,285.001838 256.717326,283.282558 C254.998203,281.563435 252.623305,280.5 250,280.5 Z M330,240.5 C327.376647,240.5 325.001647,241.563324 323.282486,243.282486 C321.563324,245.001647 320.5,247.376647 320.5,250 L320.5,270 C320.5,272.623353 321.563324,274.998353 323.282486,276.717514 C325.001647,278.436676 327.376647,279.5 330,279.5 C332.623353,279.5 334.998353,278.436676 336.717514,276.717514 C338.436676,274.998353 339.5,272.623353 339.5,270 L339.5,250 C339.5,247.376647 338.436676,245.001647 336.717514,243.282486 C334.998353,241.563324 332.623353,240.5 330,240.5 Z M54.282484,41.510627 C51.9417337,40.3338408 49.3460575,40.2200426 47.0432126,40.9865114 C44.7400308,41.7530923 42.7297715,43.4001853 41.560449,45.7450045 L21.1423158,86.5632788 C21.0295393,86.8412552 19.2272137,91.458642 22.245197,95.488132 C25.3615637,99.6489795 29.9821469,99.500188 29.990173,99.4998692 L48,99.4998692 C50.8994949,99.4998692 53.5244949,100.675122 55.4246212,102.575248 C57.3247475,104.475374 58.5,107.100374 58.5,109.999869 C58.5,112.899364 57.3247475,115.524364 55.4246212,117.42449 C53.5244949,119.324617 50.8994949,120.499869 48,120.499869 L10,120.499869 C7.37664744,120.499869 5.00164744,121.563193 3.28248558,123.282355 C1.56332372,125.001517 0.5,127.376517 0.5,129.999869 C0.5,132.623222 1.56332372,134.998222 3.28248558,136.717384 C5.00164744,138.436545 7.37664744,139.499869 10,139.499869 L30,139.499869 C32.8994949,139.499869 35.5244949,140.675122 37.4246212,142.575248 C39.3247475,144.475374 40.5,147.100374 40.5,149.999869 L40.5,209.9995 C40.5,212.622991 41.5633797,214.998116 43.282632,216.717368 C45.0018844,218.43662 47.3770094,219.5 50.0005,219.5 C52.6239906,219.5 54.9991156,218.43662 56.718368,216.717368 C58.4376203,214.998116 59.501,212.622991 59.501,209.9995 L59.501,150 C59.5010086,147.100508 60.6762625,144.47551 62.576387,142.575383 C64.4765116,140.675255 67.1015068,139.499997 70.0009977,139.499984 L129.999999,139.499886 C132.623353,139.499881 134.998353,138.436554 136.717515,136.71739 C138.436677,134.998225 139.5,132.623223 139.5,129.999869 C139.5,127.376517 138.436676,125.001517 136.717514,123.282355 C134.998353,121.563193 132.623353,120.499869 130,120.499869 L92,120.499869 C89.1005051,120.499869 86.4755051,119.324617 84.5753788,117.42449 C82.6752525,115.524364 81.5,112.899364 81.5,109.999869 C81.5,107.100374 82.6752525,104.475374 84.5753788,102.575248 C86.4755051,100.675122 89.1005051,99.4998692 92,99.4998692 L110,99.4998692 C112.623353,99.4998692 114.998353,98.4365454 116.717514,96.7173836 C118.436676,94.9982217 119.5,92.6232217 119.5,89.9998692 C119.5,87.3765166 118.436676,85.0015166 116.717514,83.2823547 C114.998353,81.5631929 112.623353,80.4998692 110,80.4998692 L51.007,80.4998692 C49.7041626,80.4998692 48.629037,79.8140768 48.0254173,78.837098 C47.4217317,77.8600124 47.289677,76.5917316 47.8729208,75.4269937 L58.4968876,54.2030601 C59.6646614,51.8684621 59.7772052,49.2813085 59.014688,46.9848206 C58.2522051,44.6884356 56.6147348,42.6826887 54.282484,41.510627 Z M100,160.5 C97.3766474,160.5 95.0016474,161.563324 93.2824856,163.282486 C91.5633237,165.001647 90.5,167.376647 90.5,170 L90.5,190 C90.5,192.623353 91.5633237,194.998353 93.2824856,196.717514 C95.0016474,198.436676 97.3766474,199.5 100,199.5 C102.623353,199.5 104.998353,198.436676 106.717514,196.717514 C108.436676,194.998353 109.5,192.623353 109.5,190 L109.5,170 C109.5,167.376647 108.436676,165.001647 106.717514,163.282486 C104.998353,161.563324 102.623353,160.5 100,160.5 Z M230,80.4999692 L150,80.4999692 C147.376635,80.4999692 145.001626,81.5633029 143.282462,83.2825091 C141.563312,85.0017021 140.5,87.3767564 140.5,90.0002192 C140.5,92.6235041 141.563295,94.9984434 143.282412,96.7175625 C145.001528,98.4366816 147.376466,99.4999805 149.999751,99.4999846 C152.899178,99.4999891 155.524115,100.675217 157.424196,102.5753 C159.324276,104.475384 160.4995,107.100323 160.4995,109.99975 L160.4995,170 C160.4995,172.623353 161.562824,174.998353 163.281986,176.717514 C165.001147,178.436676 167.376147,179.5 169.9995,179.5 C172.622853,179.5 174.997853,178.436676 176.717014,176.717514 C178.436176,174.998353 179.4995,172.623353 179.4995,170 L179.4995,110 C179.4995,107.100505 180.674753,104.475505 182.574879,102.575379 C184.475005,100.675253 187.100005,99.5 189.9995,99.5 C192.898995,99.5 195.523995,100.675253 197.424121,102.575379 C199.324247,104.475505 200.4995,107.100505 200.4995,110 L200.4995,150 C200.4995,152.623353 201.562824,154.998353 203.281986,156.717514 C205.001147,158.436676 207.376147,159.5 209.9995,159.5 C212.622853,159.5 214.997853,158.436676 216.717014,156.717514 C218.436176,154.998353 219.4995,152.623353 219.4995,150 L219.4995,110 C219.499508,107.100476 220.674787,104.475452 222.575013,102.575319 C224.475191,100.675232 227.100283,99.4999971 229.999998,99.4999846 C232.623353,99.4999805 234.998353,98.4366537 236.717515,96.7174893 C238.436677,94.9983249 239.5,92.6233231 239.5,89.9999692 C239.5,87.3766166 238.436676,85.0016166 236.717514,83.2824547 C234.998353,81.5632929 232.623353,80.4999692 230,80.4999692 Z" stroke-linejoin="square"></path>
            </g>
        </g>
    </g>
</svg>