<?xml version="1.0" encoding="UTF-8" standalone="no"?>
<svg width="209px" height="266px" viewBox="0 0 209 266" version="1.1" xmlns="http://www.w3.org/2000/svg" xmlns:xlink="http://www.w3.org/1999/xlink" xmlns:sketch="http://www.bohemiancoding.com/sketch/ns">
    <!-- Generator: Sketch 3.5.2 (25235) - http://www.bohemiancoding.com/sketch -->
    <title>Bear1</title>
    <desc>Created with Sketch.</desc>
    <defs></defs>
    <g id="Page-1" stroke="none" stroke-width="1" fill="none" fill-rule="evenodd" sketch:type="MSPage">
        <g id="Bear1" sketch:type="MSLayerGroup" transform="translate(0.000000, 1.000000)">
            <path d="M7,16.7933855 L0.979202711,16.7933855 L0.979202711,222.014336 L8.5661909,222.014336 L8.5661909,260 L198.5,260 L198.5,222.001524 L206.017523,222.001524 L206.017523,16.3000652 L199.5,16.3000652 L199.5,5.94035451 L190.5,5.94035451 L190.5,-5.25786978e-15 L15.9970143,1.58270558e-14 L15.9970143,6.43367478 L6.98611725,6.43367478" id="Path-471" fill="#FFFFFF" sketch:type="MSShapeGroup"></path>
            <path d="M203,14.9903853 L203,223.009638" id="Path-453" stroke="#101010" stroke-width="6" sketch:type="MSShapeGroup"></path>
            <path d="M4,16 L4,223.509638" id="Path-453-Copy" stroke="#101010" stroke-width="6" sketch:type="MSShapeGroup"></path>
            <rect id="Rectangle-53" stroke="#101010" stroke-width="6" sketch:type="MSShapeGroup" x="9" y="223" width="190" height="39"></rect>
            <path d="M16.5,2 L191.025787,2" id="Path-455" stroke="#101010" stroke-width="6" sketch:type="MSShapeGroup"></path>
            <rect id="Rectangle-54" fill="#101010" sketch:type="MSShapeGroup" x="7" y="5" width="9" height="9"></rect>
            <rect id="Rectangle-54-Copy" fill="#101010" sketch:type="MSShapeGroup" x="191" y="5" width="9" height="9"></rect>
            <path d="M32.5,26 L174.5,26" id="Path-456" stroke="#101010" stroke-width="6" sketch:type="MSShapeGroup"></path>
            <path d="M33,143 L175,143" id="Path-456-Copy" stroke="#101010" stroke-width="6" sketch:type="MSShapeGroup"></path>
            <path d="M179,30.5 L179,137.504673" id="Path-458" stroke="#101010" stroke-width="6" sketch:type="MSShapeGroup"></path>
            <path d="M27.5,31 L27.5,138.004673" id="Path-458-Copy" stroke="#101010" stroke-width="6" sketch:type="MSShapeGroup"></path>
            <path d="M24,193 L41,193" id="Path-460" stroke="#101010" stroke-width="6" sketch:type="MSShapeGroup"></path>
            <path d="M125,185 L173,185" id="Path-460-Copy" stroke="#101010" stroke-width="6" sketch:type="MSShapeGroup"></path>
            <rect id="Rectangle-56" fill="#101010" sketch:type="MSShapeGroup" x="91" y="88" width="19" height="8"></rect>
            <rect id="Rectangle-56-Copy" fill="#101010" sketch:type="MSShapeGroup" x="65" y="55" width="9" height="18"></rect>
            <rect id="Rectangle-56-Copy-2" fill="#101010" sketch:type="MSShapeGroup" x="125" y="55" width="9" height="18"></rect>
        </g>
    </g>
</svg>